<svg aria-hidden="true" style="position:absolute;width:0;height:0;overflow:hidden" xmlns="http://www.w3.org/2000/svg">
  <defs>
    <symbol id="logo" viewBox="0 0 312 32">
      <path fill="#802c25" style="fill:var(--color1, #802c25)" d="M24.25 31.979v-1.586c1.389-.075 2.542-.225 3.458-.45s1.369-.493 1.369-.803c0-.15-.021-.311-.051-.504a2.374 2.374 0 0 0-.165-.503l-3.149-7.081H12.445c-.494 1.039-.906 1.939-1.214 2.71s-.597 1.489-.844 2.153c-.226.632-.391 1.146-.484 1.543s-.134.729-.134.986c0 .589.556 1.05 1.678 1.371s2.388.514 3.788.568v1.585H1.001v-1.585c.463-.022 1.04-.107 1.739-.246s1.266-.332 1.708-.557c.71-.407 1.266-.825 1.657-1.264s.772-1.039 1.153-1.821a1057.9 1057.9 0 0 0 6.299-13.316C15.852 8.24 17.9 3.848 19.691.002h2.13L34.45 27.203c.268.578.566 1.039.906 1.403s.813.707 1.41 1.039c.412.203.947.375 1.606.514s1.215.214 1.657.236v1.586H24.251zm.504-12.888L19.021 6.867l-5.63 12.224h11.363zM104.992 31.979H88.257v-1.586c.607-.021 1.379-.075 2.336-.15s1.605-.204 1.966-.375c.556-.278.957-.6 1.214-.953.257-.364.391-.825.391-1.371V4.597h-.401l-12.917 26.89h-1.338L67.209 4.04h-.35v18.834c0 1.811.134 3.203.412 4.157s.7 1.639 1.266 2.046c.391.311 1.204.611 2.429.889s2.028.428 2.398.45v1.586H58.07v-1.586a22.613 22.613 0 0 0 2.522-.332c.885-.171 1.564-.407 2.038-.718.617-.429 1.05-1.061 1.276-1.918s.35-2.282.35-4.307V7.007c0-.921-.134-1.682-.401-2.282a3.637 3.637 0 0 0-1.153-1.446c-.556-.407-1.225-.707-2.028-.9s-1.595-.3-2.378-.321V.472h12.917l10.838 23.644L91.314 4.34c.34-.718.628-1.478.865-2.282.237-.793.37-1.318.391-1.586h12.361v1.586c-.494 0-1.132.064-1.904.182s-1.338.236-1.698.343c-.607.171-1.019.461-1.225.878s-.319.878-.319 1.371v22.722c0 .514.103.954.319 1.307s.628.664 1.225.943c.319.15.885.279 1.709.407.813.118 1.472.193 1.945.203V32l.01-.021zM165.006 31.979h-10.199c-2.264-2.946-4.302-5.496-6.124-7.638a175.023 175.023 0 0 0-5.938-6.642h-3.87v9.995c0 .514.093.975.299 1.361.195.386.617.686 1.256.889.319.107.885.204 1.678.289.803.086 1.472.128 2.028.15v1.585h-16.015v-1.585c.432-.022 1.05-.064 1.853-.139.813-.075 1.379-.171 1.698-.311.535-.182.916-.461 1.163-.836.237-.375.36-.846.36-1.414V4.875c0-.514-.093-.975-.268-1.371s-.597-.707-1.256-.932c-.443-.129-1.019-.246-1.739-.364a17.8 17.8 0 0 0-1.811-.193V.429h17.476c1.606 0 3.108.139 4.508.407 1.41.268 2.676.707 3.818 1.318 1.101.589 1.986 1.371 2.645 2.314.659.953.988 2.11.988 3.46 0 1.221-.226 2.303-.669 3.235s-1.101 1.736-1.976 2.4c-.803.643-1.76 1.2-2.882 1.671s-2.357.857-3.705 1.2a345.9 345.9 0 0 1 4.652 5.196c1.235 1.403 2.748 3.117 4.549 5.142.782.889 1.492 1.543 2.12 1.961s1.256.761 1.884 1.039c.463.182 1.039.332 1.739.429.69.107 1.266.161 1.739.182v1.596zM150.967 8.474c0-1.928-.659-3.45-1.976-4.553-1.317-1.114-3.18-1.671-5.578-1.671h-4.539v13.531h3.499c2.46 0 4.498-.653 6.134-1.971s2.46-3.096 2.46-5.335zM201.06 31.979h-17.055v-1.586c.484-.021 1.173-.064 2.079-.129s1.544-.15 1.925-.268c.587-.204 1.019-.471 1.287-.803s.401-.793.401-1.393V4.97c0-.514-.103-.953-.299-1.307s-.659-.643-1.389-.857c-.535-.182-1.204-.354-2.017-.514s-1.472-.246-1.986-.268V.438h17.055v1.586c-.556 0-1.215.054-1.977.15s-1.431.225-2.007.375c-.679.171-1.132.45-1.359.857s-.35.857-.35 1.339v22.829c0 .482.123.911.391 1.296s.7.686 1.317.9c.371.107.978.236 1.832.375.844.139 1.564.214 2.152.236v1.596zM254.61 9.01h-1.844c-.164-.536-.452-1.168-.864-1.907s-.884-1.425-1.4-2.068a10.73 10.73 0 0 0-1.75-1.789c-.626-.504-1.244-.803-1.832-.878a19.37 19.37 0 0 0-2.078-.15 60.285 60.285 0 0 0-2.326-.043h-1.544v25.219c0 .503.124.953.37 1.361.248.407.69.718 1.308.943.318.096.988.225 2.018.407 1.018.171 1.82.268 2.386.289v1.586h-17.876v-1.586a48.721 48.721 0 0 0 2.284-.171c1.02-.096 1.73-.204 2.12-.332.586-.204 1.02-.482 1.298-.846s.41-.846.41-1.457V2.166h-1.542c-.556 0-1.236.011-2.06.043-.822.021-1.604.075-2.346.15-.586.054-1.194.343-1.832.878a12.84 12.84 0 0 0-1.75 1.789c-.534.664-1.008 1.371-1.42 2.11s-.69 1.361-.854 1.864h-1.874V.44h32.986V9l.012.011zM311 31.979h-15.768v-1.586c1.39-.075 2.542-.225 3.458-.45s1.37-.493 1.37-.803c0-.15-.022-.311-.052-.504a2.432 2.432 0 0 0-.164-.503l-3.15-7.081h-13.266a50.248 50.248 0 0 0-1.216 2.71c-.308.771-.596 1.489-.844 2.153-.226.632-.39 1.146-.482 1.543a4.392 4.392 0 0 0-.134.986c0 .589.556 1.05 1.676 1.371 1.122.321 2.388.514 3.788.568v1.585h-14.254v-1.585c.462-.022 1.04-.107 1.74-.246s1.266-.332 1.708-.557c.71-.407 1.266-.825 1.656-1.264.392-.439.772-1.039 1.154-1.821 1.904-3.942 4.004-8.388 6.298-13.316 2.296-4.939 4.344-9.331 6.134-13.177h2.13l12.63 27.201c.266.578.566 1.039.906 1.403.338.364.812.707 1.41 1.039.41.203.946.375 1.604.514.66.139 1.216.214 1.658.236v1.586h.01zm-15.264-12.888-5.732-12.224-5.63 12.224h11.362z"/>
    </symbol>
    <symbol id="icon_facebook" viewBox="0 0 32 32">
      <path d="M21.333 12.4h-4.019V10c0-1.238.096-2.018 1.782-2.018h2.13V4.166A28.289 28.289 0 0 0 18.104 4c-3.093 0-5.351 1.988-5.351 5.639V12.4h-3.42v4.8l3.42-.001V28h4.561V17.196l3.496-.001.523-4.795z"/>
    </symbol>
    <symbol id="icon_instagram" viewBox="0 0 32 32">
      <path d="M10.645 3C6.449 3 3 6.444 3 10.645v10.71C3 25.551 6.444 29 10.645 29h10.71C25.551 29 29 25.556 29 21.355v-10.71C29 6.449 25.556 3 21.355 3h-10.71zm0 2.364h10.71a5.274 5.274 0 0 1 5.281 5.281v10.71a5.274 5.274 0 0 1-5.281 5.281h-10.71a5.274 5.274 0 0 1-5.281-5.281v-10.71a5.274 5.274 0 0 1 5.281-5.281zM22.98 7.949c-.596 0-1.071.475-1.071 1.071s.475 1.071 1.071 1.071c.595 0 1.071-.476 1.071-1.071s-.476-1.071-1.071-1.071zm-6.98.96c-3.901 0-7.091 3.19-7.091 7.091s3.19 7.091 7.091 7.091c3.901 0 7.091-3.19 7.091-7.091S19.901 8.909 16 8.909zm0 2.364c2.627 0 4.727 2.1 4.727 4.727S18.626 20.727 16 20.727c-2.627 0-4.727-2.101-4.727-4.727s2.1-4.727 4.727-4.727z"/>
    </symbol>
    <symbol id="logo_illustrationtext" viewBox="0 0 180 32">
      <path fill="#fff" style="fill:var(--color2, #fff)" d="M43.541 18.856c.026-.023.035-.059.029-.091s-.029-.062-.061-.073c-.924-.361-1.773.355-1.802.378l-.206.147 1.749-2.987a.1.1 0 0 0-.072-.15c-1.257-.173-2.329.876-2.812 1.451l.611-2.664a.096.096 0 0 0-.11-.12c-1.871.299-2.526 2.591-2.552 2.682l-.591 1.811.539-3.224a.099.099 0 0 0-.026-.085.093.093 0 0 0-.084-.026c-.02.003-1.964.364-2.679 2.846-.246.85-.504 1.656-.736 2.351l-.014-.085-4.605.742 2.169-1.568c.02-.012 1.871-1.345 1.477-3.447-.006-.032-.026-.059-.055-.07s-.064-.012-.09.006l-8.289 5.13a4.758 4.758 0 0 1-.24.158c-.892.575-2.239 1.445-2.537 5.443-.307.788-.62 1.577-.773 1.961l-.765-1.961c-.298-3.995-1.645-4.866-2.537-5.443-.084-.056-.165-.106-.243-.161L9.95 16.68a.09.09 0 0 0-.09-.006.098.098 0 0 0-.055.07c-.391 2.102 1.46 3.435 1.477 3.447l2.169 1.568-4.605-.742-.015.085a61.377 61.377 0 0 1-.736-2.351c-.715-2.483-2.659-2.843-2.679-2.846a.095.095 0 0 0-.11.111l.539 3.227-.591-1.812c-.026-.097-.681-2.389-2.552-2.688-.032-.006-.064.006-.087.029s-.032.059-.023.091l.611 2.664C2.719 16.95 1.651 15.9.391 16.076c-.032.006-.061.026-.075.056s-.012.064.003.094l1.749 2.987-.2-.141c-.035-.029-.886-.745-1.807-.384-.032.012-.055.041-.061.073s.006.067.029.091l3.988 3.69.545.929.159.692a.094.094 0 0 0 .058.07l2.022.797.11.654c.006.038.035.07.072.079.049.012 4.955 1.313 7.658 1.958 3.186.671 3.82 4.168 3.826 4.203l.191-.032c-.006-.035-.66-3.667-3.974-4.365-2.534-.604-7.015-1.788-7.591-1.941L5.515 16.13c.44.132 1.816.695 2.387 2.673a62.122 62.122 0 0 0 1.512 4.54.1.1 0 0 0 .084.062l4.678.314c.24.029.521.041.846.056 1.848.082 4.64.208 5.769 3.605 1.616 4.162 1.819 4.602 1.828 4.617l.177-.085s-.133-.29-.915-2.28c.096-.237.501-1.26.889-2.257 1.127-3.391 3.919-3.517 5.766-3.599.324-.015.605-.026.84-.056l4.68-.314c.038 0 .069-.026.084-.062.009-.021.814-2.113 1.512-4.54.571-1.979 1.946-2.541 2.387-2.673l-1.578 9.456c-.574.152-5.054 1.337-7.588 1.941-3.319.698-3.971 4.326-3.977 4.365l.191.032c.006-.035.637-3.532 3.829-4.206 2.702-.642 7.606-1.943 7.655-1.958a.1.1 0 0 0 .072-.079l.11-.654 2.022-.797a.096.096 0 0 0 .058-.07l.159-.692.545-.932 3.988-3.687.017.006zM.297 18.827c.753-.185 1.451.396 1.463.404l.562.402 1.367 2.33-3.392-3.136zm.275-2.562H.67c1.39 0 2.54 1.583 2.641 1.727l1.115 4.851-3.855-6.578zm4.339 7.809L2.82 14.976c1.639.375 2.245 2.497 2.253 2.521l.982 3.016h.003l.718 4.297-1.865-.736zm10.131-.487c-.321-.015-.597-.026-.837-.056l-4.62-.308c-.078-.208-.362-.964-.71-1.996l4.956.8c.043.006.087-.018.104-.059s.003-.091-.035-.117l-2.508-1.814c-.017-.012-1.683-1.214-1.422-3.107l8.159 5.05c.078.053.159.106.246.161.854.551 2.004 1.296 2.384 4.611-1.289-2.96-4.04-3.087-5.723-3.16l.006-.006zm18.953-.363-4.625.311c-.235.029-.513.041-.831.056-1.683.076-4.434.202-5.723 3.163.379-3.315 1.529-4.06 2.384-4.611.087-.056.168-.108.243-.158l8.162-5.05c.264 1.894-1.405 3.095-1.422 3.107l-2.508 1.814c-.038.026-.049.076-.035.117a.1.1 0 0 0 .104.059l4.956-.8a59.676 59.676 0 0 1-.71 1.996l.006-.003zm7.832-3.995s.704-.586 1.457-.399l-3.389 3.133 1.364-2.33.568-.404zm-3.157 4.845-1.865.736.718-4.297h.003l.985-3.019c.006-.02.614-2.143 2.25-2.518l-2.091 9.098zm1.599-6.082c.101-.144 1.312-1.806 2.74-1.724l-3.855 6.578 1.115-4.851v-.003z"/>
      <path fill="#fff" style="fill:var(--color2, #fff)" d="M14.254 9.858c-.22.387-.339.827-.339 1.278 0 1.175.773 2.181 1.885 2.483a12.56 12.56 0 0 0-.24 1.474c0 .029.009.059.029.079s.046.032.078.029c.484-.047.97-.135 1.457-.246a2.535 2.535 0 0 0 2.453 1.908c.446 0 .878-.12 1.263-.343.275.428.565.841.88 1.216a.097.097 0 0 0 .15 0c.316-.378.605-.788.881-1.216.382.223.817.343 1.263.343a2.536 2.536 0 0 0 2.453-1.908c.489.108.976.196 1.457.243.035 0 .058-.009.078-.029s.032-.05.029-.079c-.046-.49-.133-.982-.24-1.474a2.556 2.556 0 0 0 1.885-2.483c0-.451-.119-.888-.339-1.278.423-.278.831-.572 1.205-.891.02-.018.035-.047.035-.076s-.012-.056-.035-.076a11.73 11.73 0 0 0-1.205-.891c.22-.387.339-.827.339-1.275a2.557 2.557 0 0 0-1.885-2.483c.107-.495.194-.988.243-1.477 0-.029-.009-.059-.029-.079s-.046-.029-.078-.029c-.484.047-.97.135-1.46.243a2.534 2.534 0 0 0-2.45-1.908c-.446 0-.878.12-1.26.343a12.223 12.223 0 0 0-.88-1.219c-.017-.023-.046-.035-.075-.035s-.055.012-.075.035c-.316.378-.605.788-.881 1.219a2.502 2.502 0 0 0-1.26-.343 2.53 2.53 0 0 0-2.45 1.908c-.49-.108-.976-.196-1.46-.246-.032 0-.058.009-.078.029s-.032.05-.029.079c.046.49.133.982.24 1.477a2.556 2.556 0 0 0-1.885 2.483c0 .451.119.888.339 1.275-.423.278-.831.572-1.205.891-.02.018-.035.047-.035.076s.012.056.035.076c.374.319.779.613 1.205.891l-.009.006zm-.145 1.278c0-.413.11-.815.307-1.17.672.425 1.396.806 2.181 1.123a14.391 14.391 0 0 0-.756 2.336 2.36 2.36 0 0 1-1.732-2.289zm2.694-.027 2.166-.923c-.087.079-.182.152-.264.235a5.883 5.883 0 0 0-1.607 3.104.107.107 0 0 0 .026.088.096.096 0 0 0 .087.026 5.753 5.753 0 0 0 3.067-1.627c.081-.082.156-.176.232-.264l-.912 2.193c-1.28.56-2.569.915-3.838 1.052.136-1.281.487-2.585 1.04-3.884h.003zm2.757-3.048a.103.103 0 0 0 .107-.059.1.1 0 0 0-.035-.12 5.641 5.641 0 0 1-.788-.66 5.698 5.698 0 0 1-1.526-2.855 5.584 5.584 0 0 1 3.476 2.342c.026.038.075.053.119.035s.067-.064.058-.108a5.684 5.684 0 0 1 .822-4.139 5.7 5.7 0 0 1 .822 4.139c-.009.047.017.091.058.108s.09.003.119-.035a5.56 5.56 0 0 1 3.476-2.342 5.675 5.675 0 0 1-1.526 2.855 5.748 5.748 0 0 1-.788.66c-.038.026-.052.076-.035.12s.064.067.107.059a5.53 5.53 0 0 1 4.093.832 5.54 5.54 0 0 1-4.093.832c-.043-.009-.09.018-.107.059s-.003.094.035.12a5.609 5.609 0 0 1 2.311 3.518 5.563 5.563 0 0 1-3.473-2.342c-.026-.038-.075-.053-.119-.035s-.067.065-.058.108a5.684 5.684 0 0 1-.822 4.139 5.715 5.715 0 0 1-.822-4.139.097.097 0 0 0-.058-.108.088.088 0 0 0-.038-.009.097.097 0 0 0-.081.044 5.582 5.582 0 0 1-3.476 2.342 5.684 5.684 0 0 1 1.526-2.858c.235-.235.498-.457.788-.66.038-.026.052-.076.035-.12s-.064-.067-.107-.059a5.53 5.53 0 0 1-4.093-.832 5.54 5.54 0 0 1 4.093-.832zm.015 8.606a2.34 2.34 0 0 1-2.262-1.753 14.243 14.243 0 0 0 2.308-.765c.313.794.689 1.527 1.109 2.207-.35.202-.747.314-1.156.314v-.003zm2.215.853c-.817-.994-1.492-2.175-2.01-3.506l.921-2.213c-.009.126-.023.255-.023.378 0 1.199.356 2.357 1.031 3.345a.097.097 0 0 0 .162 0 5.9 5.9 0 0 0 1.031-3.345c0-.123-.014-.252-.023-.378l.921 2.213c-.518 1.331-1.193 2.509-2.01 3.506zm2.216-.853c-.408 0-.805-.111-1.156-.314a13.63 13.63 0 0 0 1.109-2.207c.767.334 1.541.583 2.308.765a2.34 2.34 0 0 1-2.262 1.753v.003zm-.026-2.726-.912-2.193c.078.088.151.185.232.267a5.783 5.783 0 0 0 3.067 1.627.105.105 0 0 0 .087-.026.098.098 0 0 0 .026-.088 5.863 5.863 0 0 0-1.607-3.104c-.081-.082-.174-.158-.264-.235l2.166.923c.553 1.296.907 2.6 1.04 3.884-1.266-.138-2.555-.492-3.838-1.052l.003-.003zm5.491-2.802c0 1.082-.71 2.008-1.732 2.289a14.31 14.31 0 0 0-.759-2.336 13.361 13.361 0 0 0 2.181-1.123c.2.358.31.756.31 1.17zm-2.618-.209-2.187-.932c.125.009.252.023.374.023a5.74 5.74 0 0 0 3.305-1.044c.026-.018.041-.05.041-.082s-.014-.062-.041-.082A5.732 5.732 0 0 0 25.04 7.77c-.122 0-.249.015-.374.023l2.187-.932c1.315.525 2.482 1.208 3.464 2.034-.985.827-2.149 1.512-3.464 2.034zm2.618-4.276c0 .413-.11.812-.307 1.17a13.601 13.601 0 0 0-2.181-1.123c.327-.777.576-1.556.756-2.336a2.36 2.36 0 0 1 1.732 2.289zm-2.693.026-2.166.923c.087-.079.182-.152.264-.234a5.905 5.905 0 0 0 1.607-3.104.108.108 0 0 0-.026-.088.096.096 0 0 0-.087-.026 5.753 5.753 0 0 0-3.067 1.627c-.081.082-.156.176-.232.267l.912-2.193c1.28-.56 2.569-.915 3.838-1.052-.136 1.281-.487 2.588-1.04 3.884l-.003-.003zm-2.769-5.557a2.34 2.34 0 0 1 2.262 1.753c-.767.185-1.541.434-2.308.765a13.63 13.63 0 0 0-1.109-2.207 2.31 2.31 0 0 1 1.156-.311zM21.793.267c.817.994 1.492 2.175 2.01 3.506l-.921 2.213c.009-.126.023-.255.023-.378a5.907 5.907 0 0 0-1.031-3.345c-.038-.053-.125-.053-.159 0a5.907 5.907 0 0 0-1.031 3.345c0 .123.014.252.023.378l-.921-2.213c.518-1.331 1.193-2.512 2.01-3.506h-.003zm-2.215.856c.408 0 .802.111 1.156.311-.42.68-.796 1.413-1.109 2.207a13.683 13.683 0 0 0-2.308-.765 2.34 2.34 0 0 1 2.262-1.753zm.026 2.726.912 2.193c-.078-.088-.151-.182-.232-.264-.84-.85-1.9-1.41-3.067-1.627a.105.105 0 0 0-.087.026.098.098 0 0 0-.026.088 5.884 5.884 0 0 0 1.607 3.104c.081.082.174.158.264.234l-2.166-.923c-.553-1.299-.904-2.603-1.04-3.884 1.266.138 2.557.492 3.838 1.052h-.003zm-5.492 2.805c0-1.082.71-2.008 1.732-2.289.182.777.429 1.556.756 2.336-.785.317-1.509.695-2.181 1.123a2.379 2.379 0 0 1-.307-1.17zm2.618.208 2.187.932c-.124-.009-.252-.023-.374-.023a5.747 5.747 0 0 0-3.305 1.043c-.026.018-.041.05-.041.082s.015.062.041.082a5.74 5.74 0 0 0 3.305 1.044c.122 0 .249-.015.374-.023l-2.187.932c-1.315-.525-2.482-1.208-3.464-2.034.985-.827 2.149-1.513 3.464-2.034z"/>
      <path fill="#fff" style="fill:var(--color2, #fff)" d="M21.79 12.554c-.035 0-.061.029-.061.062s.029.062.061.062.061-.029.061-.062-.029-.062-.061-.062zM21.79 11.666c-.058 0-.104.047-.104.106s.046.106.104.106c.058 0 .104-.047.104-.106s-.046-.106-.104-.106zM21.79 10.787c-.075 0-.139.062-.139.141s.061.141.139.141.139-.062.139-.141a.139.139 0 0 0-.139-.141zM21.79 9.919c-.087 0-.159.07-.159.161s.07.161.159.161c.09 0 .159-.07.159-.161s-.07-.161-.159-.161zM21.79 7.706a.161.161 0 0 0 0-.322c-.09 0-.159.073-.159.161s.07.161.159.161zM21.79 6.841c.078 0 .139-.064.139-.141s-.061-.141-.139-.141c-.078 0-.139.064-.139.141s.061.141.139.141zM21.79 5.959c.058 0 .104-.047.104-.106s-.046-.106-.104-.106c-.058 0-.104.047-.104.106s.046.106.104.106zM21.79 5.071c.035 0 .064-.029.064-.064s-.029-.064-.064-.064-.064.029-.064.064.029.064.064.064zM25.55 8.876c.035 0 .061-.029.061-.062s-.029-.062-.061-.062-.061.029-.061.062.029.062.061.062zM24.713 8.92c.058 0 .104-.047.104-.106s-.046-.106-.104-.106-.104.047-.104.106.046.106.104.106zM23.878 8.952c.075 0 .139-.062.139-.141s-.061-.141-.139-.141-.139.062-.139.141c0 .079.061.141.139.141zM23.044 8.972c.087 0 .159-.07.159-.161s-.07-.161-.159-.161-.159.07-.159.161.07.161.159.161zM20.38 8.811c0 .088.07.161.159.161s.159-.073.159-.161c0-.088-.07-.161-.159-.161s-.159.073-.159.161zM19.702 8.955c.078 0 .139-.065.139-.141s-.061-.141-.139-.141-.139.065-.139.141c0 .076.064.141.139.141zM18.868 8.92c.058 0 .104-.047.104-.106s-.046-.106-.104-.106-.104.047-.104.106.046.106.104.106zM18.031 8.75c-.035 0-.064.029-.064.065s.029.065.064.065.064-.029.064-.065-.029-.065-.064-.065zM24.492 11.546c.023-.023.023-.065 0-.088s-.064-.023-.087 0c-.023.023-.023.064 0 .088s.064.023.087 0zM23.783 10.831c-.041.041-.041.108 0 .149s.107.041.148 0c.041-.041.041-.108 0-.149s-.107-.041-.148 0zM23.169 10.206c-.055.056-.055.144 0 .199s.142.056.197 0c.055-.056.055-.144 0-.199s-.142-.056-.197 0zM22.787 9.822c.061-.062.061-.164 0-.226s-.162-.062-.223 0-.061.164 0 .226.162.062.223 0zM21.017 8.029c.061-.062.061-.164 0-.226s-.162-.062-.223 0-.061.164 0 .226.162.062.223 0zM20.412 7.419c.055-.056.055-.144 0-.199s-.142-.056-.197 0c-.055.056-.055.144 0 .199s.142.056.197 0zM19.798 6.795c.041-.041.041-.108 0-.149s-.107-.041-.148 0c-.041.041-.041.108 0 .149s.107.041.148 0zM19.088 6.079c-.023.023-.023.064 0 .091s.064.023.087 0c.023-.023.023-.064 0-.088s-.064-.023-.087 0v-.003zM24.492 6.167c.023-.023.023-.064 0-.088s-.064-.023-.087 0c-.023.023-.023.064 0 .088s.064.023.087 0zM23.931 6.795c.041-.041.041-.108 0-.149s-.107-.041-.148 0c-.041.041-.041.108 0 .149s.107.041.148 0zM23.366 7.416c.055-.056.055-.144 0-.199s-.142-.056-.197 0c-.055.056-.055.144 0 .199s.142.056.197 0zM22.79 8.029c.061-.062.061-.164 0-.226s-.162-.062-.223 0-.061.164 0 .226.162.062.223 0zM20.791 9.597c-.061.062-.061.164 0 .226s.162.062.226 0c.061-.062.061-.164 0-.226s-.162-.062-.223 0h-.003zM20.215 10.206c-.055.056-.055.144 0 .199s.142.056.197 0c.055-.056.055-.144 0-.199s-.142-.056-.197 0zM19.65 10.831c-.041.041-.041.108 0 .149s.107.041.148 0c.041-.041.041-.108 0-.149s-.107-.041-.148 0zM19.088 11.458c-.023.023-.023.064 0 .088s.064.023.09 0c.023-.023.023-.065 0-.091a.063.063 0 0 0-.087 0l-.003.003zM66.628 22.146v-.61c.544-.029.996-.086 1.355-.173s.536-.19.536-.309a.92.92 0 0 0-.084-.388l-1.234-2.724h-5.197c-.194.4-.355.746-.476 1.042s-.234.573-.331.828c-.089.243-.153.441-.19.593s-.052.28-.052.379c0 .227.218.404.657.527s.935.198 1.484.218v.61H57.52v-.61c.181-.008.407-.041.681-.095s.496-.128.669-.214c.278-.157.496-.317.649-.486s.302-.4.452-.7a397.106 397.106 0 0 0 2.467-5.122c.899-1.9 1.701-3.589 2.403-5.068h.835l4.947 10.462c.105.223.222.4.355.54s.318.272.552.4c.161.078.371.144.629.198s.476.082.649.091v.61h-6.181zm.198-4.957-2.246-4.701-2.205 4.701h4.451zM98.257 22.146h-6.555v-.61c.237-.008.54-.029.915-.058s.629-.078.77-.144c.218-.107.375-.231.476-.367a.881.881 0 0 0 .153-.527v-8.826h-.158l-5.059 10.342h-.524l-4.818-10.557h-.137v7.244c0 .696.052 1.232.162 1.599s.274.63.496.787c.153.119.472.235.952.342s.794.165.939.173v.61h-5.991v-.61c.314-.021.641-.066.988-.128.347-.066.613-.157.798-.276.242-.165.412-.408.5-.737s.137-.878.137-1.656v-6.205c0-.354-.052-.647-.158-.878a1.404 1.404 0 0 0-.451-.556c-.218-.157-.48-.272-.794-.346s-.625-.115-.931-.124v-.61h5.06l4.245 9.094 3.628-7.606a6.01 6.01 0 0 0 .339-.878c.093-.305.145-.507.153-.61h4.843v.61c-.194 0-.444.025-.746.07s-.524.091-.665.132c-.238.066-.4.177-.48.338s-.125.338-.125.527v8.739c0 .198.04.367.125.503s.246.256.48.363c.125.058.347.107.67.157.318.045.576.074.761.078v.61l.004-.008zM121.767 22.146h-3.996a77.768 77.768 0 0 0-2.398-2.938 68.534 68.534 0 0 0-2.326-2.555h-1.516v3.844c0 .198.036.375.117.523.076.148.241.264.492.342.125.041.347.078.657.111.314.033.577.049.794.058v.61h-6.274v-.61c.17-.008.411-.025.726-.054.318-.029.54-.066.665-.119a.846.846 0 0 0 .456-.321.986.986 0 0 0 .141-.544v-8.772c0-.198-.037-.375-.105-.527s-.234-.272-.492-.358a6.152 6.152 0 0 0-.681-.14 6.99 6.99 0 0 0-.71-.074v-.61h6.846c.629 0 1.218.054 1.766.157a5.277 5.277 0 0 1 1.496.507 2.91 2.91 0 0 1 1.036.89c.258.367.386.812.386 1.331 0 .47-.089.886-.262 1.244s-.432.668-.774.923c-.315.247-.69.462-1.129.643s-.924.33-1.451.462a137.01 137.01 0 0 1 1.822 1.998c.483.54 1.076 1.199 1.782 1.978.306.342.584.593.83.754s.492.293.738.4c.181.07.407.128.681.165.271.041.496.062.682.07v.614zm-5.5-9.041c0-.742-.258-1.327-.775-1.751-.516-.429-1.246-.643-2.185-.643h-1.778v5.204h1.371c.963 0 1.762-.251 2.402-.758s.964-1.191.964-2.052zM135.889 22.146h-6.68v-.61c.189-.008.459-.025.814-.049s.605-.058.754-.103c.23-.078.399-.181.504-.309s.158-.305.158-.536v-8.781c0-.198-.04-.367-.117-.503s-.258-.247-.544-.33c-.21-.07-.472-.136-.79-.198s-.577-.095-.778-.103v-.61h6.68v.61c-.217 0-.475.021-.774.058s-.56.087-.786.144c-.266.066-.444.173-.532.33s-.137.33-.137.515v8.781c0 .185.048.35.153.499s.274.264.516.346c.145.041.383.091.718.144.33.054.612.082.842.091v.614zM156.866 13.311h-.721c-.065-.206-.177-.449-.339-.733s-.347-.548-.548-.795c-.21-.264-.44-.494-.686-.688s-.487-.309-.717-.338a7.965 7.965 0 0 0-.815-.058 24.769 24.769 0 0 0-.911-.017h-.605v9.699c0 .194.048.367.145.523s.27.276.512.363c.125.037.386.087.79.157.399.066.713.103.935.111v.61h-7.003v-.61c.194-.008.492-.029.894-.066.4-.037.678-.078.831-.128.23-.078.399-.185.508-.326s.161-.326.161-.56v-9.778h-.605c-.217 0-.483.004-.806.017-.323.008-.629.029-.92.058-.23.021-.468.132-.717.338-.246.202-.476.433-.686.688s-.395.527-.556.812c-.161.284-.27.523-.335.717h-.734v-3.292h12.921v3.292l.004.004zM178.956 22.146h-6.176v-.61c.544-.029.995-.086 1.355-.173s.536-.19.536-.309a.92.92 0 0 0-.085-.388l-1.234-2.724h-5.196c-.194.4-.355.746-.476 1.042s-.234.573-.331.828c-.089.243-.153.441-.19.593s-.053.28-.053.379c0 .227.217.404.657.527s.935.198 1.483.218v.61h-5.584v-.61c.181-.008.407-.041.681-.095s.496-.128.67-.214c.278-.157.496-.317.649-.486s.303-.4.451-.7a396.219 396.219 0 0 0 2.468-5.122c.898-1.9 1.701-3.589 2.402-5.068h.834l4.947 10.462c.105.223.222.4.355.54s.318.272.552.4c.161.078.371.144.629.198s.476.082.649.091v.61h.004zm-5.979-4.957-2.246-4.701-2.205 4.701h4.45z"/>
    </symbol>
    <symbol id="check-circle" viewBox="0 0 32 32">
      <path fill="none" stroke="#802c25" style="stroke:var(--color1, #802c25)" stroke-linejoin="round" stroke-linecap="round" stroke-width="2" d="M28 14.903v1.104a12.007 12.007 0 0 1-8.598 11.501 11.996 11.996 0 0 1-13.469-4.976 12.005 12.005 0 0 1 .945-14.328A11.995 11.995 0 0 1 20.885 5.04"/>
      <path fill="none" stroke="#802c25" style="stroke:var(--color1, #802c25)" stroke-linejoin="round" stroke-linecap="round" stroke-width="2" d="m28 6.667-11.282 12-3.385-3.596"/>
    </symbol>
    <symbol id="chevron-right" viewBox="0 0 32 32">
      <path fill="none" stroke="#802c25" style="stroke:var(--color1, #802c25)" stroke-linejoin="round" stroke-linecap="round" stroke-width="1.5" d="m10 4 12 12-12 12"/>
    </symbol>
    <symbol id="chevron-left" viewBox="0 0 30 32">
      <path fill="none" stroke="#802c25" style="stroke:var(--color1, #802c25)" stroke-linejoin="round" stroke-linecap="round" stroke-width=".923" d="M21.359 4 10.051 16l11.308 12"/>
    </symbol>
    <symbol id="chevron-down" viewBox="0 0 32 32">
      <path stroke-linejoin="round" stroke-linecap="round" stroke-width="2" d="m4 10 12 12 12-12"/>
    </symbol>
    <symbol id="chevron-down-white" viewBox="0 0 24 24">
      <path fill="none" stroke="#fff" style="stroke:var(--color1, #fff)" stroke-linejoin="round" stroke-linecap="round" stroke-width="1.5" d="m3 7.5 9 9 9-9"/>
    </symbol>
    <symbol id="chevron-up" viewBox="0 0 32 32">
      <path fill="none" stroke="#802c25" style="stroke:var(--color1, #802c25)" stroke-linejoin="round" stroke-linecap="round" stroke-width="2" d="m4 22 12-12 12 12"/>
    </symbol>
    <symbol id="search" viewBox="0 0 32 32">
      <path stroke-linejoin="round" stroke-linecap="round" stroke-width="2.4" d="M13.333 22.667a9.333 9.333 0 1 0 0-18.666 9.333 9.333 0 1 0 0 18.666zM28 28l-8-8"/>
    </symbol>
    <symbol id="arrow-up-right" viewBox="0 0 32 32">
      <path stroke-linejoin="round" stroke-linecap="round" stroke-width="2.182" d="M9.333 22.667 22.666 9.334M9.333 9.333h13.333v13.333"/>
    </symbol>
    <symbol id="button_menu-burger" viewBox="0 0 32 32">
      <path d="M10.446 8.86a1.587 1.587 0 1 1-3.174 0 1.587 1.587 0 0 1 3.174 0zM10.446 16a1.587 1.587 0 1 1-3.174 0 1.587 1.587 0 0 1 3.174 0zM10.446 23.14a1.587 1.587 0 1 1-3.174 0 1.587 1.587 0 0 1 3.174 0zM17.587 8.86a1.587 1.587 0 1 1-3.174 0 1.587 1.587 0 0 1 3.174 0zM17.587 16a1.587 1.587 0 1 1-3.174 0 1.587 1.587 0 0 1 3.174 0zM17.587 23.14a1.587 1.587 0 1 1-3.174 0 1.587 1.587 0 0 1 3.174 0zM24.727 8.86a1.587 1.587 0 1 1-3.174 0 1.587 1.587 0 0 1 3.174 0zM24.727 16a1.587 1.587 0 1 1-3.174 0 1.587 1.587 0 0 1 3.174 0zM24.727 23.14a1.587 1.587 0 1 1-3.174 0 1.587 1.587 0 0 1 3.174 0z"/>
    </symbol>
    <symbol id="plus" viewBox="0 0 32 32">
      <path fill="none" stroke="#802c25" style="stroke:var(--color1, #802c25)" stroke-linejoin="round" stroke-linecap="round" stroke-width="1.5" d="M16 4v24M4 16h24"/>
    </symbol>
    <symbol id="minus" viewBox="0 0 32 32">
      <path  stroke-linejoin="round" stroke-linecap="round" stroke-width="1.5" d="M4 16h24"/>
    </symbol>
    <symbol id="eye-off" viewBox="0 0 32 32">
      <path stroke-linejoin="round" stroke-linecap="round" stroke-width="2" d="M22.48 22.48A10.985 10.985 0 0 1 16 24.727C8.364 24.727 4 16 4 16a20.128 20.128 0 0 1 5.52-6.48m4.189-1.985A9.929 9.929 0 0 1 16 7.273C23.636 7.273 28 16 28 16a20.193 20.193 0 0 1-2.356 3.48m-7.331-1.167a3.274 3.274 0 0 1-4.708.083c-.311-.311-.556-.681-.72-1.089s-.245-.844-.238-1.283a3.274 3.274 0 0 1 1.041-2.336M4 4l24 24"/>
    </symbol>
    <symbol id="eye" viewBox="0 0 32 32">
      <path stroke-linejoin="round" stroke-linecap="round" stroke-width="2" d="M4 16s4.364-8 12-8 12 8 12 8-4.364 8-12 8-12-8-12-8z"/>
      <path stroke-linejoin="round" stroke-linecap="round" stroke-width="2" d="M16 19c1.807 0 3.273-1.343 3.273-3S17.808 13 16 13c-1.807 0-3.273 1.343-3.273 3s1.465 3 3.273 3z"/>
    </symbol>
    <symbol id="chooseoff" viewBox="0 0 32 32">
      <path fill="none" stroke="#ffa149" style="stroke:var(--color1, #ffa149)" stroke-linejoin="round" stroke-width="2" d="m16 6.374 2.653 5.711a1 1 0 0 0 .79.572l6.274.739-4.634 4.255a1 1 0 0 0-.304.933l1.232 6.157-5.526-3.071a1 1 0 0 0-.972 0l-5.526 3.072 1.232-6.157a1 1 0 0 0-.304-.933l-4.634-4.257 6.276-.739a1 1 0 0 0 .79-.572l2.652-5.71z"/>
    </symbol>
    <symbol id="chooseon" viewBox="0 0 32 32">
      <path fill="#ff8a00" style="fill:var(--color2, #ff8a00)" d="m16 4 3.56 7.663 8.44.994-6.24 5.729 1.656 8.278-7.417-4.122-7.417 4.123 1.656-8.278-6.24-5.732 8.441-.994 3.559-7.662z"/>
    </symbol>
    <symbol id="check" viewBox="0 0 32 32">
      <path fill="none" stroke="#fff" style="stroke:var(--color1, #fff)" stroke-linejoin="round" stroke-linecap="round" stroke-width="3.429" d="m4 15.789 7.714 8.21L28 6.666"/>
    </symbol>
    <symbol id="close-icon" viewBox="0 0 32 32">
      <path fill="none" stroke="#802c25" style="stroke:var(--color1, #802c25)" stroke-linejoin="round" stroke-linecap="round" stroke-width="1.5" d="m4 4 24 24M4 28 28 4"/>
    </symbol>
    <!--SERVICES PAGE-->
    <symbol id="filter" viewBox="0 0 32 32">
<path fill="none" stroke="#fff" style="stroke: var(--color1, #fff)" stroke-linejoin="round" stroke-linecap="round" stroke-miterlimit="4" stroke-width="2.1818" d="M28 6.345c0-0.821 0-1.231-0.165-1.545-0.143-0.276-0.372-0.5-0.654-0.64-0.321-0.16-0.741-0.16-1.581-0.16h-19.2c-0.84 0-1.26 0-1.581 0.16-0.282 0.141-0.512 0.365-0.655 0.64-0.163 0.314-0.163 0.724-0.163 1.545v1.080c0 0.359 0 0.538 0.042 0.706 0.037 0.15 0.097 0.293 0.18 0.425 0.091 0.147 0.222 0.274 0.48 0.528l7.595 7.418c0.259 0.254 0.39 0.381 0.482 0.528 0.082 0.132 0.144 0.276 0.18 0.425 0.042 0.167 0.042 0.344 0.042 0.695v6.969c0 1.256 0 1.884 0.27 2.263 0.117 0.163 0.267 0.302 0.441 0.407s0.368 0.174 0.57 0.203c0.466 0.067 1.043-0.212 2.191-0.775l1.2-0.586c0.483-0.234 0.723-0.352 0.899-0.528 0.156-0.155 0.274-0.343 0.346-0.548 0.082-0.232 0.082-0.495 0.082-1.021v-6.372c0-0.359 0-0.538 0.042-0.706 0.037-0.15 0.097-0.293 0.18-0.425 0.090-0.147 0.221-0.273 0.476-0.522l0.006-0.006 7.594-7.418c0.258-0.254 0.387-0.381 0.48-0.528 0.083-0.131 0.143-0.275 0.18-0.425 0.042-0.166 0.042-0.344 0.042-0.695v-1.092z"></path>
</symbol>
<symbol id="sort_by" viewBox="0 0 32 32">
<path stroke-linejoin="round" stroke-linecap="round" stroke-miterlimit="4" stroke-width="2.1818" d="M13.933 8.96l-4.96-4.96-4.96 4.96"></path>
<path stroke-linejoin="round" stroke-linecap="round" stroke-miterlimit="4" stroke-width="2.1818" d="M8.973 28v-24"></path>
<path stroke-linejoin="round" stroke-linecap="round" stroke-miterlimit="4" stroke-width="2.1818" d="M18.067 23.040l4.96 4.96 4.96-4.96"></path>
<path stroke-linejoin="round" stroke-linecap="round" stroke-miterlimit="4" stroke-width="2.1818" d="M23.027 4v24"></path>
</symbol>
<symbol id="chevron-right-black" viewBox="0 0 31 32">
<path stroke-linejoin="round" stroke-linecap="round" stroke-miterlimit="4" stroke-width="1.1707" d="M9.756 4.293l11.707 11.707-11.707 11.707"></path>
</symbol>
<symbol id="chevron-left-black" viewBox="0 0 31 32">
<path stroke-linejoin="round" stroke-linecap="round" stroke-miterlimit="4" stroke-width="1.1707" d="M22.114 4.293l-11.707 11.707 11.707 11.707"></path>
</symbol>
<!--SERVICE-->
<symbol id="relax" viewBox="0 0 32 32">
<path fill="none" stroke="#802c25" style="stroke: var(--color1, #802c25)" stroke-linejoin="round" stroke-linecap="round" stroke-miterlimit="4" stroke-width="2" d="M26.256 16c0.858 0.454 1.59 1.121 2.128 1.939s0.864 1.762 0.949 2.744c0 4.035-5.969 7.317-13.333 7.317s-13.333-3.261-13.333-7.296c0.081-0.985 0.406-1.933 0.944-2.756s1.272-1.493 2.133-1.948"></path>
<path fill="none" stroke="#802c25" style="stroke: var(--color1, #802c25)" stroke-linejoin="round" stroke-linecap="round" stroke-miterlimit="4" stroke-width="2" d="M10.434 6.167c-3.812 5.417 3.812 7.583 0 13M16 4c-3.812 5.417 3.812 11.917 0 17.333M21.566 6.167c-3.812 5.417 3.812 7.583 0 13"></path>
</symbol>
<symbol id="spa" viewBox="0 0 32 32">
<path stroke-linejoin="miter" stroke-linecap="butt" stroke-miterlimit="4" stroke-width="1.3333" d="M22.391 15.056l0.068 0.728 0.719-0.135c0.564-0.106 1.137-0.159 1.711-0.159h3.778v2.909c0 4.914-4.076 8.933-9.111 8.933h-7.111c-5.035 0-9.111-4.019-9.111-8.933v-2.909h3.778c0.568-0 1.134 0.052 1.692 0.155l0.734 0.136 0.052-0.745c0.129-1.825 0.648-3.602 1.524-5.218s2.091-3.032 3.564-4.156v-0l1.095-0.836 1.184 0.842c0 0 0 0 0 0 1.536 1.096 2.815 2.5 3.752 4.119s1.51 3.415 1.682 5.268zM16.183 5.638l-0.4-0.285-0.821 0.627c-0 0-0.001 0-0.001 0.001-1.482 1.125-2.695 2.557-3.551 4.195s-1.334 3.443-1.4 5.285l-0.017 0.474 0.442 0.171c2.199 0.852 3.975 2.502 4.961 4.603l0.603 1.286 0.604-1.286c0.984-2.098 2.755-3.746 4.948-4.599l0.455-0.177-0.031-0.487c-0.118-1.862-0.654-3.674-1.569-5.308s-2.184-3.048-3.719-4.142l-0.001-0.001-0.505-0.359zM15.111 26.921h0.667v-2.497c0-4.711-3.899-8.521-8.667-8.521h-3.333v2.497c0 4.711 3.899 8.521 8.667 8.521h2.667zM16.222 26.255v0.667h3.333c4.768 0 8.667-3.811 8.667-8.521v-2.497h-3.333c-4.768 0-8.667 3.811-8.667 8.521v1.83z"></path>
</symbol>
<symbol id="time" viewBox="0 0 32 32">
<path stroke-linejoin="miter" stroke-linecap="butt" stroke-miterlimit="4" stroke-width="1.3333" d="M16 27.333c-2.241 0-4.433-0.665-6.296-1.91s-3.316-3.015-4.174-5.086c-0.858-2.071-1.082-4.35-0.645-6.548s1.517-4.218 3.102-5.803 3.604-2.664 5.803-3.102c2.199-0.437 4.477-0.213 6.548 0.645s3.841 2.31 5.086 4.174c1.245 1.864 1.91 4.055 1.91 6.296 0 3.006-1.194 5.888-3.319 8.014s-5.008 3.319-8.014 3.319zM16 5.048c-2.166 0-4.284 0.642-6.085 1.846s-3.205 2.914-4.034 4.915c-0.829 2.001-1.046 4.203-0.623 6.328s1.466 4.076 2.997 5.608c1.532 1.532 3.483 2.575 5.608 2.997s4.327 0.206 6.328-0.623c2.001-0.829 3.712-2.233 4.915-4.034s1.846-3.919 1.846-6.085c0-2.905-1.154-5.691-3.208-7.745s-4.84-3.208-7.745-3.208z"></path>
<path stroke-linejoin="miter" stroke-linecap="butt" stroke-miterlimit="4" stroke-width="1.3333" d="M15.905 15.627v0.289l4.257 3.981c0.106 0.099 0.106 0.267-0 0.365-0.096 0.090-0.245 0.090-0.341 0l-4.275-3.99c-0.135-0.126-0.212-0.303-0.212-0.487v-6.833c0-0.158 0.128-0.286 0.286-0.286s0.286 0.128 0.286 0.286v6.674z"></path>
</symbol>
  </defs>
</svg>