<!-- ОПТИМІЗУВАТИ СПРАЙТ -->
<svg aria-hidden="true" style="position: absolute; width: 0; height: 0; overflow: hidden;" version="1.1" xmlns="http://www.w3.org/2000/svg" xmlns:xlink="http://www.w3.org/1999/xlink">
<defs>
<symbol id="logo" viewBox="0 0 312 32">
<path fill="#802c25" style="fill: var(--color1, #802c25)" d="M24.25 31.979v-1.586c1.389-0.075 2.542-0.225 3.458-0.45s1.369-0.493 1.369-0.803c0-0.15-0.021-0.311-0.051-0.504-0.041-0.182-0.093-0.353-0.165-0.503l-3.149-7.081h-13.267c-0.494 1.039-0.906 1.939-1.214 2.71s-0.597 1.489-0.844 2.153c-0.226 0.632-0.391 1.146-0.484 1.543s-0.134 0.729-0.134 0.986c0 0.589 0.556 1.050 1.678 1.371s2.388 0.514 3.788 0.568v1.585h-14.234v-1.585c0.463-0.022 1.040-0.107 1.739-0.246s1.266-0.332 1.708-0.557c0.71-0.407 1.266-0.825 1.657-1.264s0.772-1.039 1.153-1.821c1.904-3.942 4.004-8.388 6.299-13.316 2.295-4.939 4.343-9.331 6.134-13.177h2.13l12.629 27.201c0.268 0.578 0.566 1.039 0.906 1.403s0.813 0.707 1.41 1.039c0.412 0.203 0.947 0.375 1.606 0.514s1.215 0.214 1.657 0.236v1.586h-15.778zM24.754 19.091l-5.733-12.224-5.63 12.224h11.363z"></path>
<path fill="#802c25" style="fill: var(--color1, #802c25)" d="M104.992 31.979h-16.735v-1.586c0.607-0.021 1.379-0.075 2.336-0.15s1.605-0.204 1.966-0.375c0.556-0.278 0.957-0.6 1.214-0.953 0.257-0.364 0.391-0.825 0.391-1.371v-22.947h-0.401l-12.917 26.89h-1.338l-12.299-27.447h-0.35v18.834c0 1.811 0.134 3.203 0.412 4.157s0.7 1.639 1.266 2.046c0.391 0.311 1.204 0.611 2.429 0.889s2.028 0.428 2.398 0.45v1.586h-15.294v-1.586c0.803-0.054 1.637-0.171 2.522-0.332 0.885-0.171 1.564-0.407 2.038-0.718 0.617-0.429 1.050-1.061 1.276-1.918s0.35-2.282 0.35-4.307v-16.134c0-0.921-0.134-1.682-0.401-2.282-0.268-0.589-0.648-1.071-1.153-1.446-0.556-0.407-1.225-0.707-2.028-0.9s-1.595-0.3-2.378-0.321v-1.586h12.917l10.838 23.644 9.263-19.776c0.34-0.718 0.628-1.478 0.865-2.282 0.237-0.793 0.37-1.318 0.391-1.586h12.361v1.586c-0.494 0-1.132 0.064-1.904 0.182s-1.338 0.236-1.698 0.343c-0.607 0.171-1.019 0.461-1.225 0.878s-0.319 0.878-0.319 1.371v22.722c0 0.514 0.103 0.954 0.319 1.307s0.628 0.664 1.225 0.943c0.319 0.15 0.885 0.279 1.709 0.407 0.813 0.118 1.472 0.193 1.945 0.203v1.586l0.010-0.021z"></path>
<path fill="#802c25" style="fill: var(--color1, #802c25)" d="M165.006 31.979h-10.199c-2.264-2.946-4.302-5.496-6.124-7.638-1.822-2.153-3.798-4.36-5.938-6.642h-3.87v9.995c0 0.514 0.093 0.975 0.299 1.361 0.195 0.386 0.617 0.686 1.256 0.889 0.319 0.107 0.885 0.204 1.678 0.289 0.803 0.086 1.472 0.128 2.028 0.15v1.585h-16.015v-1.585c0.432-0.022 1.050-0.064 1.853-0.139 0.813-0.075 1.379-0.171 1.698-0.311 0.535-0.182 0.916-0.461 1.163-0.836 0.237-0.375 0.36-0.846 0.36-1.414v-22.808c0-0.514-0.093-0.975-0.268-1.371s-0.597-0.707-1.256-0.932c-0.443-0.129-1.019-0.246-1.739-0.364-0.71-0.107-1.317-0.171-1.811-0.193v-1.586h17.476c1.606 0 3.108 0.139 4.508 0.407 1.41 0.268 2.676 0.707 3.818 1.318 1.101 0.589 1.986 1.371 2.645 2.314 0.659 0.953 0.988 2.11 0.988 3.46 0 1.221-0.226 2.303-0.669 3.235s-1.101 1.736-1.976 2.4c-0.803 0.643-1.76 1.2-2.882 1.671s-2.357 0.857-3.705 1.2c1.873 2.057 3.417 3.782 4.652 5.196 1.235 1.403 2.748 3.117 4.549 5.142 0.782 0.889 1.492 1.543 2.12 1.961s1.256 0.761 1.884 1.039c0.463 0.182 1.039 0.332 1.739 0.429 0.69 0.107 1.266 0.161 1.739 0.182v1.596zM150.967 8.474c0-1.928-0.659-3.45-1.976-4.553-1.317-1.114-3.18-1.671-5.578-1.671h-4.539v13.531h3.499c2.46 0 4.498-0.653 6.134-1.971s2.46-3.096 2.46-5.335z"></path>
<path fill="#802c25" style="fill: var(--color1, #802c25)" d="M201.060 31.979h-17.055v-1.586c0.484-0.021 1.173-0.064 2.079-0.129s1.544-0.15 1.925-0.268c0.587-0.204 1.019-0.471 1.287-0.803s0.401-0.793 0.401-1.393v-22.83c0-0.514-0.103-0.953-0.299-1.307s-0.659-0.643-1.389-0.857c-0.535-0.182-1.204-0.354-2.017-0.514s-1.472-0.246-1.986-0.268v-1.586h17.055v1.586c-0.556 0-1.215 0.054-1.977 0.15s-1.431 0.225-2.007 0.375c-0.679 0.171-1.132 0.45-1.359 0.857s-0.35 0.857-0.35 1.339v22.829c0 0.482 0.123 0.911 0.391 1.296s0.7 0.686 1.317 0.9c0.371 0.107 0.978 0.236 1.832 0.375 0.844 0.139 1.564 0.214 2.152 0.236v1.596z"></path>
<path fill="#802c25" style="fill: var(--color1, #802c25)" d="M254.61 9.010h-1.844c-0.164-0.536-0.452-1.168-0.864-1.907s-0.884-1.425-1.4-2.068c-0.534-0.686-1.122-1.286-1.75-1.789-0.626-0.504-1.244-0.803-1.832-0.878-0.554-0.075-1.244-0.129-2.078-0.15-0.834-0.032-1.606-0.043-2.326-0.043h-1.544v25.219c0 0.503 0.124 0.953 0.37 1.361 0.248 0.407 0.69 0.718 1.308 0.943 0.318 0.096 0.988 0.225 2.018 0.407 1.018 0.171 1.82 0.268 2.386 0.289v1.586h-17.876v-1.586c0.494-0.021 1.254-0.075 2.284-0.171 1.020-0.096 1.73-0.204 2.12-0.332 0.586-0.204 1.020-0.482 1.298-0.846s0.41-0.846 0.41-1.457v-25.422h-1.542c-0.556 0-1.236 0.011-2.060 0.043-0.822 0.021-1.604 0.075-2.346 0.15-0.586 0.054-1.194 0.343-1.832 0.878-0.628 0.525-1.214 1.125-1.75 1.789-0.534 0.664-1.008 1.371-1.42 2.11s-0.69 1.361-0.854 1.864h-1.874v-8.56h32.986v8.56l0.012 0.011z"></path>
<path fill="#802c25" style="fill: var(--color1, #802c25)" d="M311 31.979h-15.768v-1.586c1.39-0.075 2.542-0.225 3.458-0.45s1.37-0.493 1.37-0.803c0-0.15-0.022-0.311-0.052-0.504-0.042-0.182-0.092-0.353-0.164-0.503l-3.15-7.081h-13.266c-0.494 1.039-0.906 1.939-1.216 2.71-0.308 0.771-0.596 1.489-0.844 2.153-0.226 0.632-0.39 1.146-0.482 1.543-0.094 0.396-0.134 0.729-0.134 0.986 0 0.589 0.556 1.050 1.676 1.371 1.122 0.321 2.388 0.514 3.788 0.568v1.585h-14.254v-1.585c0.462-0.022 1.040-0.107 1.74-0.246s1.266-0.332 1.708-0.557c0.71-0.407 1.266-0.825 1.656-1.264 0.392-0.439 0.772-1.039 1.154-1.821 1.904-3.942 4.004-8.388 6.298-13.316 2.296-4.939 4.344-9.331 6.134-13.177h2.13l12.63 27.201c0.266 0.578 0.566 1.039 0.906 1.403 0.338 0.364 0.812 0.707 1.41 1.039 0.41 0.203 0.946 0.375 1.604 0.514 0.66 0.139 1.216 0.214 1.658 0.236v1.586h0.010zM295.736 19.091l-5.732-12.224-5.63 12.224h11.362z"></path>
</symbol>
<symbol id="icon_facebook" viewBox="0 0 32 32">
<path fill="#802c25" style="fill: var(--color1, #802c25)" d="M21.333 12.4h-4.019v-2.4c0-1.238 0.096-2.018 1.782-2.018h2.13v-3.816c-1.036-0.113-2.078-0.168-3.122-0.166-3.093 0-5.351 1.988-5.351 5.639v2.761h-3.42v4.8l3.42-0.001v10.801h4.561v-10.804l3.496-0.001 0.523-4.795z"></path>
</symbol>
<symbol id="icon_instagram" viewBox="0 0 32 32">
<path fill="#802c25" style="fill: var(--color1, #802c25)" d="M10.645 3c-4.196 0-7.645 3.444-7.645 7.645v10.71c0 4.196 3.444 7.645 7.645 7.645h10.71c4.196 0 7.645-3.444 7.645-7.645v-10.71c0-4.196-3.444-7.645-7.645-7.645h-10.71zM10.645 5.364h10.71c2.922 0 5.281 2.359 5.281 5.281v10.71c0 2.922-2.359 5.281-5.281 5.281h-10.71c-2.922 0-5.281-2.359-5.281-5.281v-10.71c0-2.922 2.359-5.281 5.281-5.281zM22.98 7.949c-0.596 0-1.071 0.475-1.071 1.071s0.475 1.071 1.071 1.071c0.595 0 1.071-0.476 1.071-1.071s-0.476-1.071-1.071-1.071zM16 8.909c-3.901 0-7.091 3.19-7.091 7.091s3.19 7.091 7.091 7.091c3.901 0 7.091-3.19 7.091-7.091s-3.19-7.091-7.091-7.091zM16 11.273c2.627 0 4.727 2.1 4.727 4.727s-2.101 4.727-4.727 4.727c-2.627 0-4.727-2.101-4.727-4.727s2.1-4.727 4.727-4.727z"></path>
</symbol>
<symbol id="logo_illustrationtext" viewBox="0 0 180 32">
<path fill="#fff" style="fill: var(--color2, #fff)" d="M43.541 18.856c0.026-0.023 0.035-0.059 0.029-0.091s-0.029-0.062-0.061-0.073c-0.924-0.361-1.773 0.355-1.802 0.378l-0.206 0.147 1.749-2.987c0.017-0.029 0.017-0.064 0.003-0.094s-0.044-0.050-0.075-0.056c-1.257-0.173-2.329 0.876-2.812 1.451l0.611-2.664c0.009-0.032 0-0.065-0.023-0.091-0.020-0.023-0.055-0.035-0.087-0.029-1.871 0.299-2.526 2.591-2.552 2.682l-0.591 1.811 0.539-3.224c0.006-0.032-0.006-0.064-0.026-0.085-0.023-0.023-0.055-0.032-0.084-0.026-0.020 0.003-1.964 0.364-2.679 2.846-0.246 0.85-0.504 1.656-0.736 2.351l-0.014-0.085-4.605 0.742 2.169-1.568c0.020-0.012 1.871-1.345 1.477-3.447-0.006-0.032-0.026-0.059-0.055-0.070s-0.064-0.012-0.090 0.006l-8.289 5.13c-0.075 0.053-0.156 0.106-0.24 0.158-0.892 0.575-2.239 1.445-2.537 5.443-0.307 0.788-0.62 1.577-0.773 1.961-0.209-0.536-0.461-1.181-0.765-1.961-0.298-3.995-1.645-4.866-2.537-5.443-0.084-0.056-0.165-0.106-0.243-0.161l-8.286-5.127c-0.029-0.018-0.061-0.020-0.090-0.006-0.029 0.012-0.049 0.041-0.055 0.070-0.391 2.102 1.46 3.435 1.477 3.447l2.169 1.568-4.605-0.742-0.015 0.085c-0.232-0.692-0.489-1.501-0.736-2.351-0.715-2.483-2.659-2.843-2.679-2.846-0.032-0.006-0.064 0.006-0.084 0.026-0.023 0.023-0.032 0.056-0.026 0.085l0.539 3.227-0.591-1.812c-0.026-0.097-0.681-2.389-2.552-2.688-0.032-0.006-0.064 0.006-0.087 0.029s-0.032 0.059-0.023 0.091l0.611 2.664c-0.484-0.577-1.552-1.627-2.812-1.451-0.032 0.006-0.061 0.026-0.075 0.056s-0.012 0.064 0.003 0.094l1.749 2.987-0.2-0.141c-0.035-0.029-0.886-0.745-1.807-0.384-0.032 0.012-0.055 0.041-0.061 0.073s0.006 0.067 0.029 0.091l3.988 3.69 0.545 0.929 0.159 0.692c0.006 0.032 0.029 0.059 0.058 0.070l2.022 0.797 0.11 0.654c0.006 0.038 0.035 0.070 0.072 0.079 0.049 0.012 4.955 1.313 7.658 1.958 3.186 0.671 3.82 4.168 3.826 4.203l0.191-0.032c-0.006-0.035-0.66-3.667-3.974-4.365-2.534-0.604-7.015-1.788-7.591-1.941l-1.578-9.456c0.44 0.132 1.816 0.695 2.387 2.673 0.701 2.427 1.503 4.52 1.512 4.54 0.015 0.035 0.046 0.059 0.084 0.062l4.678 0.314c0.24 0.029 0.521 0.041 0.846 0.056 1.848 0.082 4.64 0.208 5.769 3.605 1.616 4.162 1.819 4.602 1.828 4.617l0.177-0.085c0 0-0.133-0.29-0.915-2.28 0.096-0.237 0.501-1.26 0.889-2.257 1.127-3.391 3.919-3.517 5.766-3.599 0.324-0.015 0.605-0.026 0.84-0.056l4.68-0.314c0.038 0 0.069-0.026 0.084-0.062 0.009-0.021 0.814-2.113 1.512-4.54 0.571-1.979 1.946-2.541 2.387-2.673l-1.578 9.456c-0.574 0.152-5.054 1.337-7.588 1.941-3.319 0.698-3.971 4.326-3.977 4.365l0.191 0.032c0.006-0.035 0.637-3.532 3.829-4.206 2.702-0.642 7.606-1.943 7.655-1.958 0.038-0.009 0.064-0.041 0.072-0.079l0.11-0.654 2.022-0.797c0.029-0.012 0.052-0.038 0.058-0.070l0.159-0.692 0.545-0.932 3.988-3.687 0.017 0.006zM0.297 18.827c0.753-0.185 1.451 0.396 1.463 0.404l0.562 0.402 1.367 2.33-3.392-3.136zM0.572 16.265c0.032 0 0.067 0 0.098 0 1.39 0 2.54 1.583 2.641 1.727l1.115 4.851-3.855-6.578zM4.911 24.074l-2.091-9.098c1.639 0.375 2.245 2.497 2.253 2.521l0.982 3.016h0.003l0.718 4.297-1.865-0.736zM15.042 23.587c-0.321-0.015-0.597-0.026-0.837-0.056l-4.62-0.308c-0.078-0.208-0.362-0.964-0.71-1.996l4.956 0.8c0.043 0.006 0.087-0.018 0.104-0.059s0.003-0.091-0.035-0.117l-2.508-1.814c-0.017-0.012-1.683-1.214-1.422-3.107l8.159 5.050c0.078 0.053 0.159 0.106 0.246 0.161 0.854 0.551 2.004 1.296 2.384 4.611-1.289-2.96-4.040-3.087-5.723-3.16l0.006-0.006zM33.995 23.224l-4.625 0.311c-0.235 0.029-0.513 0.041-0.831 0.056-1.683 0.076-4.434 0.202-5.723 3.163 0.379-3.315 1.529-4.060 2.384-4.611 0.087-0.056 0.168-0.108 0.243-0.158l8.162-5.050c0.264 1.894-1.405 3.095-1.422 3.107l-2.508 1.814c-0.038 0.026-0.049 0.076-0.035 0.117 0.017 0.041 0.061 0.064 0.104 0.059l4.956-0.8c-0.348 1.032-0.631 1.788-0.71 1.996l0.006-0.003zM41.827 19.229c0 0 0.704-0.586 1.457-0.399l-3.389 3.133 1.364-2.33 0.568-0.404zM38.67 24.074l-1.865 0.736 0.718-4.297h0.003l0.985-3.019c0.006-0.020 0.614-2.143 2.25-2.518l-2.091 9.098zM40.269 17.992c0.101-0.144 1.312-1.806 2.74-1.724l-3.855 6.578 1.115-4.851v-0.003z"></path>
<path fill="#fff" style="fill: var(--color2, #fff)" d="M14.254 9.858c-0.22 0.387-0.339 0.827-0.339 1.278 0 1.175 0.773 2.181 1.885 2.483-0.107 0.492-0.194 0.988-0.24 1.474 0 0.029 0.009 0.059 0.029 0.079s0.046 0.032 0.078 0.029c0.484-0.047 0.97-0.135 1.457-0.246 0.298 1.126 1.292 1.908 2.453 1.908 0.446 0 0.878-0.12 1.263-0.343 0.275 0.428 0.565 0.841 0.88 1.216 0.017 0.020 0.046 0.035 0.075 0.035s0.055-0.012 0.075-0.035c0.316-0.378 0.605-0.788 0.881-1.216 0.382 0.223 0.817 0.343 1.263 0.343 1.161 0 2.155-0.783 2.453-1.908 0.489 0.108 0.976 0.196 1.457 0.243 0.035 0 0.058-0.009 0.078-0.029s0.032-0.050 0.029-0.079c-0.046-0.49-0.133-0.982-0.24-1.474 1.112-0.302 1.885-1.307 1.885-2.483 0-0.451-0.119-0.888-0.339-1.278 0.423-0.278 0.831-0.572 1.205-0.891 0.020-0.018 0.035-0.047 0.035-0.076s-0.012-0.056-0.035-0.076c-0.374-0.319-0.779-0.613-1.205-0.891 0.22-0.387 0.339-0.827 0.339-1.275 0-1.175-0.773-2.181-1.885-2.483 0.107-0.495 0.194-0.988 0.243-1.477 0-0.029-0.009-0.059-0.029-0.079s-0.046-0.029-0.078-0.029c-0.484 0.047-0.97 0.135-1.46 0.243-0.298-1.126-1.292-1.908-2.45-1.908-0.446 0-0.878 0.12-1.26 0.343-0.275-0.428-0.565-0.841-0.88-1.219-0.017-0.023-0.046-0.035-0.075-0.035s-0.055 0.012-0.075 0.035c-0.316 0.378-0.605 0.788-0.881 1.219-0.382-0.223-0.817-0.343-1.26-0.343-1.161 0-2.155 0.783-2.45 1.908-0.49-0.108-0.976-0.196-1.46-0.246-0.032 0-0.058 0.009-0.078 0.029s-0.032 0.050-0.029 0.079c0.046 0.49 0.133 0.982 0.24 1.477-1.112 0.302-1.885 1.307-1.885 2.483 0 0.451 0.119 0.888 0.339 1.275-0.423 0.278-0.831 0.572-1.205 0.891-0.020 0.018-0.035 0.047-0.035 0.076s0.012 0.056 0.035 0.076c0.374 0.319 0.779 0.613 1.205 0.891l-0.009 0.006zM14.109 11.136c0-0.413 0.11-0.815 0.307-1.17 0.672 0.425 1.396 0.806 2.181 1.123-0.327 0.777-0.576 1.559-0.756 2.336-1.022-0.281-1.732-1.208-1.732-2.289zM16.803 11.109l2.166-0.923c-0.087 0.079-0.182 0.152-0.264 0.235-0.837 0.847-1.393 1.92-1.607 3.104-0.006 0.032 0.006 0.065 0.026 0.088 0.023 0.023 0.055 0.032 0.087 0.026 1.167-0.214 2.227-0.777 3.067-1.627 0.081-0.082 0.156-0.176 0.232-0.264l-0.912 2.193c-1.28 0.56-2.569 0.915-3.838 1.052 0.136-1.281 0.487-2.585 1.040-3.884h0.003zM19.56 8.061c0.043 0.006 0.090-0.018 0.107-0.059 0.017-0.044 0.003-0.094-0.035-0.12-0.29-0.202-0.556-0.425-0.788-0.66-0.776-0.786-1.3-1.77-1.526-2.855 1.072 0.226 2.045 0.759 2.824 1.545 0.235 0.237 0.449 0.498 0.652 0.797 0.026 0.038 0.075 0.053 0.119 0.035s0.067-0.064 0.058-0.108c-0.064-0.349-0.096-0.698-0.096-1.029 0-1.111 0.316-2.184 0.918-3.11 0.6 0.926 0.918 1.999 0.918 3.11 0 0.331-0.032 0.677-0.096 1.029-0.009 0.047 0.017 0.091 0.058 0.108s0.090 0.003 0.119-0.035c0.2-0.293 0.42-0.563 0.652-0.797 0.776-0.786 1.749-1.319 2.824-1.545-0.223 1.085-0.75 2.069-1.526 2.855-0.235 0.237-0.498 0.457-0.788 0.66-0.038 0.026-0.052 0.076-0.035 0.12s0.064 0.067 0.107 0.059c0.348-0.064 0.689-0.097 1.017-0.097 1.098 0 2.158 0.319 3.076 0.929-0.915 0.607-1.975 0.929-3.076 0.929-0.327 0-0.672-0.032-1.017-0.097-0.043-0.009-0.090 0.018-0.107 0.059s-0.003 0.094 0.035 0.12c0.29 0.202 0.553 0.422 0.788 0.66 0.776 0.786 1.303 1.77 1.523 2.858-1.072-0.226-2.045-0.759-2.821-1.545-0.232-0.235-0.452-0.504-0.652-0.797-0.026-0.038-0.075-0.053-0.119-0.035s-0.067 0.065-0.058 0.108c0.064 0.352 0.096 0.698 0.096 1.029 0 1.111-0.316 2.184-0.918 3.11-0.6-0.929-0.918-2.002-0.918-3.11 0-0.334 0.032-0.68 0.096-1.029 0.009-0.047-0.017-0.091-0.058-0.108-0.012-0.006-0.026-0.009-0.038-0.009-0.032 0-0.061 0.015-0.081 0.044-0.203 0.299-0.417 0.56-0.652 0.797-0.776 0.786-1.749 1.316-2.824 1.545 0.223-1.085 0.75-2.072 1.526-2.858 0.235-0.235 0.498-0.457 0.788-0.66 0.038-0.026 0.052-0.076 0.035-0.12s-0.064-0.067-0.107-0.059c-0.348 0.065-0.689 0.097-1.017 0.097-1.098 0-2.158-0.319-3.076-0.929 0.915-0.607 1.975-0.929 3.076-0.929 0.327 0 0.669 0.032 1.017 0.097zM19.575 16.667c-1.069 0-1.984-0.718-2.262-1.753 0.767-0.185 1.541-0.434 2.308-0.765 0.313 0.794 0.689 1.527 1.109 2.207-0.35 0.202-0.747 0.314-1.156 0.314v-0.003zM21.79 17.52c-0.817-0.994-1.492-2.175-2.010-3.506l0.921-2.213c-0.009 0.126-0.023 0.255-0.023 0.378 0 1.199 0.356 2.357 1.031 3.345 0.017 0.026 0.049 0.044 0.081 0.044s0.061-0.015 0.081-0.044c0.675-0.988 1.031-2.143 1.031-3.345 0-0.123-0.014-0.252-0.023-0.378l0.921 2.213c-0.518 1.331-1.193 2.509-2.010 3.506zM24.006 16.667c-0.408 0-0.805-0.111-1.156-0.314 0.423-0.68 0.796-1.413 1.109-2.207 0.767 0.334 1.541 0.583 2.308 0.765-0.278 1.035-1.193 1.753-2.262 1.753v0.003zM23.98 13.941l-0.912-2.193c0.078 0.088 0.151 0.185 0.232 0.267 0.84 0.847 1.897 1.41 3.067 1.627 0.032 0.006 0.064-0.006 0.087-0.026 0.023-0.023 0.032-0.056 0.026-0.088-0.211-1.181-0.767-2.254-1.607-3.104-0.081-0.082-0.174-0.158-0.264-0.235l2.166 0.923c0.553 1.296 0.907 2.6 1.040 3.884-1.266-0.138-2.555-0.492-3.838-1.052l0.003-0.003zM29.471 11.139c0 1.082-0.71 2.008-1.732 2.289-0.182-0.777-0.429-1.559-0.759-2.336 0.785-0.317 1.509-0.695 2.181-1.123 0.2 0.358 0.31 0.756 0.31 1.17zM26.853 10.93l-2.187-0.932c0.125 0.009 0.252 0.023 0.374 0.023 1.185 0 2.329-0.361 3.305-1.044 0.026-0.018 0.041-0.050 0.041-0.082s-0.014-0.062-0.041-0.082c-0.976-0.683-2.117-1.043-3.305-1.043-0.122 0-0.249 0.015-0.374 0.023l2.187-0.932c1.315 0.525 2.482 1.208 3.464 2.034-0.985 0.827-2.149 1.512-3.464 2.034zM29.471 6.654c0 0.413-0.11 0.812-0.307 1.17-0.672-0.425-1.396-0.806-2.181-1.123 0.327-0.777 0.576-1.556 0.756-2.336 1.022 0.281 1.732 1.208 1.732 2.289zM26.778 6.68l-2.166 0.923c0.087-0.079 0.182-0.152 0.264-0.234 0.837-0.85 1.393-1.923 1.607-3.104 0.006-0.032-0.006-0.064-0.026-0.088-0.023-0.023-0.055-0.032-0.087-0.026-1.167 0.214-2.227 0.777-3.067 1.627-0.081 0.082-0.156 0.176-0.232 0.267l0.912-2.193c1.28-0.56 2.569-0.915 3.838-1.052-0.136 1.281-0.487 2.588-1.040 3.884l-0.003-0.003zM24.009 1.123c1.069 0 1.984 0.718 2.262 1.753-0.767 0.185-1.541 0.434-2.308 0.765-0.313-0.794-0.686-1.527-1.109-2.207 0.35-0.202 0.747-0.311 1.156-0.311zM21.793 0.267c0.817 0.994 1.492 2.175 2.010 3.506l-0.921 2.213c0.009-0.126 0.023-0.255 0.023-0.378 0-1.199-0.356-2.357-1.031-3.345-0.038-0.053-0.125-0.053-0.159 0-0.675 0.988-1.031 2.146-1.031 3.345 0 0.123 0.014 0.252 0.023 0.378l-0.921-2.213c0.518-1.331 1.193-2.512 2.010-3.506h-0.003zM19.578 1.123c0.408 0 0.802 0.111 1.156 0.311-0.42 0.68-0.796 1.413-1.109 2.207-0.767-0.334-1.541-0.583-2.308-0.765 0.278-1.035 1.193-1.753 2.262-1.753zM19.604 3.849l0.912 2.193c-0.078-0.088-0.151-0.182-0.232-0.264-0.84-0.85-1.9-1.41-3.067-1.627-0.032-0.006-0.064 0.006-0.087 0.026-0.023 0.023-0.032 0.056-0.026 0.088 0.214 1.181 0.767 2.254 1.607 3.104 0.081 0.082 0.174 0.158 0.264 0.234l-2.166-0.923c-0.553-1.299-0.904-2.603-1.040-3.884 1.266 0.138 2.557 0.492 3.838 1.052h-0.003zM14.112 6.654c0-1.082 0.71-2.008 1.732-2.289 0.182 0.777 0.429 1.556 0.756 2.336-0.785 0.317-1.509 0.695-2.181 1.123-0.2-0.355-0.307-0.756-0.307-1.17zM16.73 6.862l2.187 0.932c-0.124-0.009-0.252-0.023-0.374-0.023-1.185 0-2.329 0.361-3.305 1.043-0.026 0.018-0.041 0.050-0.041 0.082s0.015 0.062 0.041 0.082c0.976 0.683 2.12 1.044 3.305 1.044 0.122 0 0.249-0.015 0.374-0.023l-2.187 0.932c-1.315-0.525-2.482-1.208-3.464-2.034 0.985-0.827 2.149-1.513 3.464-2.034z"></path>
<path fill="#fff" style="fill: var(--color2, #fff)" d="M21.79 12.554c-0.035 0-0.061 0.029-0.061 0.062s0.029 0.062 0.061 0.062c0.032 0 0.061-0.029 0.061-0.062s-0.029-0.062-0.061-0.062z"></path>
<path fill="#fff" style="fill: var(--color2, #fff)" d="M21.79 11.666c-0.058 0-0.104 0.047-0.104 0.106s0.046 0.106 0.104 0.106c0.058 0 0.104-0.047 0.104-0.106s-0.046-0.106-0.104-0.106z"></path>
<path fill="#fff" style="fill: var(--color2, #fff)" d="M21.79 10.787c-0.075 0-0.139 0.062-0.139 0.141s0.061 0.141 0.139 0.141 0.139-0.062 0.139-0.141c0-0.079-0.061-0.141-0.139-0.141z"></path>
<path fill="#fff" style="fill: var(--color2, #fff)" d="M21.79 9.919c-0.087 0-0.159 0.070-0.159 0.161s0.070 0.161 0.159 0.161c0.090 0 0.159-0.070 0.159-0.161s-0.070-0.161-0.159-0.161z"></path>
<path fill="#fff" style="fill: var(--color2, #fff)" d="M21.79 7.706c0.087 0 0.159-0.073 0.159-0.161s-0.070-0.161-0.159-0.161c-0.090 0-0.159 0.073-0.159 0.161s0.070 0.161 0.159 0.161z"></path>
<path fill="#fff" style="fill: var(--color2, #fff)" d="M21.79 6.841c0.078 0 0.139-0.064 0.139-0.141s-0.061-0.141-0.139-0.141c-0.078 0-0.139 0.064-0.139 0.141s0.061 0.141 0.139 0.141z"></path>
<path fill="#fff" style="fill: var(--color2, #fff)" d="M21.79 5.959c0.058 0 0.104-0.047 0.104-0.106s-0.046-0.106-0.104-0.106c-0.058 0-0.104 0.047-0.104 0.106s0.046 0.106 0.104 0.106z"></path>
<path fill="#fff" style="fill: var(--color2, #fff)" d="M21.79 5.071c0.035 0 0.064-0.029 0.064-0.064s-0.029-0.064-0.064-0.064c-0.035 0-0.064 0.029-0.064 0.064s0.029 0.064 0.064 0.064z"></path>
<path fill="#fff" style="fill: var(--color2, #fff)" d="M25.55 8.876c0.035 0 0.061-0.029 0.061-0.062s-0.029-0.062-0.061-0.062c-0.032 0-0.061 0.029-0.061 0.062s0.029 0.062 0.061 0.062z"></path>
<path fill="#fff" style="fill: var(--color2, #fff)" d="M24.713 8.92c0.058 0 0.104-0.047 0.104-0.106s-0.046-0.106-0.104-0.106-0.104 0.047-0.104 0.106c0 0.059 0.046 0.106 0.104 0.106z"></path>
<path fill="#fff" style="fill: var(--color2, #fff)" d="M23.878 8.952c0.075 0 0.139-0.062 0.139-0.141s-0.061-0.141-0.139-0.141-0.139 0.062-0.139 0.141c0 0.079 0.061 0.141 0.139 0.141z"></path>
<path fill="#fff" style="fill: var(--color2, #fff)" d="M23.044 8.972c0.087 0 0.159-0.070 0.159-0.161s-0.070-0.161-0.159-0.161-0.159 0.070-0.159 0.161c0 0.091 0.070 0.161 0.159 0.161z"></path>
<path fill="#fff" style="fill: var(--color2, #fff)" d="M20.38 8.811c0 0.088 0.070 0.161 0.159 0.161s0.159-0.073 0.159-0.161c0-0.088-0.070-0.161-0.159-0.161s-0.159 0.073-0.159 0.161z"></path>
<path fill="#fff" style="fill: var(--color2, #fff)" d="M19.702 8.955c0.078 0 0.139-0.065 0.139-0.141s-0.061-0.141-0.139-0.141-0.139 0.065-0.139 0.141c0 0.076 0.064 0.141 0.139 0.141z"></path>
<path fill="#fff" style="fill: var(--color2, #fff)" d="M18.868 8.92c0.058 0 0.104-0.047 0.104-0.106s-0.046-0.106-0.104-0.106-0.104 0.047-0.104 0.106c0 0.059 0.046 0.106 0.104 0.106z"></path>
<path fill="#fff" style="fill: var(--color2, #fff)" d="M18.031 8.75c-0.035 0-0.064 0.029-0.064 0.065s0.029 0.065 0.064 0.065c0.035 0 0.064-0.029 0.064-0.065s-0.029-0.065-0.064-0.065z"></path>
<path fill="#fff" style="fill: var(--color2, #fff)" d="M24.492 11.546c0.023-0.023 0.023-0.065 0-0.088s-0.064-0.023-0.087 0c-0.023 0.023-0.023 0.064 0 0.088s0.064 0.023 0.087 0z"></path>
<path fill="#fff" style="fill: var(--color2, #fff)" d="M23.783 10.831c-0.041 0.041-0.041 0.108 0 0.149s0.107 0.041 0.148 0c0.041-0.041 0.041-0.108 0-0.149s-0.107-0.041-0.148 0z"></path>
<path fill="#fff" style="fill: var(--color2, #fff)" d="M23.169 10.206c-0.055 0.056-0.055 0.144 0 0.199s0.142 0.056 0.197 0c0.055-0.056 0.055-0.144 0-0.199s-0.142-0.056-0.197 0z"></path>
<path fill="#fff" style="fill: var(--color2, #fff)" d="M22.787 9.822c0.061-0.062 0.061-0.164 0-0.226s-0.162-0.062-0.223 0c-0.061 0.062-0.061 0.164 0 0.226s0.162 0.062 0.223 0z"></path>
<path fill="#fff" style="fill: var(--color2, #fff)" d="M21.017 8.029c0.061-0.062 0.061-0.164 0-0.226s-0.162-0.062-0.223 0c-0.061 0.062-0.061 0.164 0 0.226s0.162 0.062 0.223 0z"></path>
<path fill="#fff" style="fill: var(--color2, #fff)" d="M20.412 7.419c0.055-0.056 0.055-0.144 0-0.199s-0.142-0.056-0.197 0c-0.055 0.056-0.055 0.144 0 0.199s0.142 0.056 0.197 0z"></path>
<path fill="#fff" style="fill: var(--color2, #fff)" d="M19.798 6.795c0.041-0.041 0.041-0.108 0-0.149s-0.107-0.041-0.148 0c-0.041 0.041-0.041 0.108 0 0.149s0.107 0.041 0.148 0z"></path>
<path fill="#fff" style="fill: var(--color2, #fff)" d="M19.088 6.079c-0.023 0.023-0.023 0.064 0 0.091s0.064 0.023 0.087 0c0.023-0.023 0.023-0.064 0-0.088s-0.064-0.023-0.087 0v-0.003z"></path>
<path fill="#fff" style="fill: var(--color2, #fff)" d="M24.492 6.167c0.023-0.023 0.023-0.064 0-0.088s-0.064-0.023-0.087 0c-0.023 0.023-0.023 0.064 0 0.088s0.064 0.023 0.087 0z"></path>
<path fill="#fff" style="fill: var(--color2, #fff)" d="M23.931 6.795c0.041-0.041 0.041-0.108 0-0.149s-0.107-0.041-0.148 0c-0.041 0.041-0.041 0.108 0 0.149s0.107 0.041 0.148 0z"></path>
<path fill="#fff" style="fill: var(--color2, #fff)" d="M23.366 7.416c0.055-0.056 0.055-0.144 0-0.199s-0.142-0.056-0.197 0c-0.055 0.056-0.055 0.144 0 0.199s0.142 0.056 0.197 0z"></path>
<path fill="#fff" style="fill: var(--color2, #fff)" d="M22.79 8.029c0.061-0.062 0.061-0.164 0-0.226s-0.162-0.062-0.223 0c-0.061 0.062-0.061 0.164 0 0.226s0.162 0.062 0.223 0z"></path>
<path fill="#fff" style="fill: var(--color2, #fff)" d="M20.791 9.597c-0.061 0.062-0.061 0.164 0 0.226s0.162 0.062 0.226 0c0.061-0.062 0.061-0.164 0-0.226s-0.162-0.062-0.223 0h-0.003z"></path>
<path fill="#fff" style="fill: var(--color2, #fff)" d="M20.215 10.206c-0.055 0.056-0.055 0.144 0 0.199s0.142 0.056 0.197 0c0.055-0.056 0.055-0.144 0-0.199s-0.142-0.056-0.197 0z"></path>
<path fill="#fff" style="fill: var(--color2, #fff)" d="M19.65 10.831c-0.041 0.041-0.041 0.108 0 0.149s0.107 0.041 0.148 0c0.041-0.041 0.041-0.108 0-0.149s-0.107-0.041-0.148 0z"></path>
<path fill="#fff" style="fill: var(--color2, #fff)" d="M19.088 11.458c-0.023 0.023-0.023 0.064 0 0.088s0.064 0.023 0.090 0c0.023-0.023 0.023-0.065 0-0.091-0.023-0.023-0.064-0.023-0.087 0l-0.003 0.003z"></path>
<path fill="#fff" style="fill: var(--color2, #fff)" d="M66.628 22.146v-0.61c0.544-0.029 0.996-0.086 1.355-0.173s0.536-0.19 0.536-0.309c0-0.058-0.008-0.119-0.020-0.194-0.016-0.070-0.036-0.136-0.064-0.194l-1.234-2.724h-5.197c-0.194 0.4-0.355 0.746-0.476 1.042s-0.234 0.573-0.331 0.828c-0.089 0.243-0.153 0.441-0.19 0.593s-0.052 0.28-0.052 0.379c0 0.227 0.218 0.404 0.657 0.527s0.935 0.198 1.484 0.218v0.61h-5.576v-0.61c0.181-0.008 0.407-0.041 0.681-0.095s0.496-0.128 0.669-0.214c0.278-0.157 0.496-0.317 0.649-0.486s0.302-0.4 0.452-0.7c0.746-1.516 1.568-3.226 2.467-5.122 0.899-1.9 1.701-3.589 2.403-5.068h0.835l4.947 10.462c0.105 0.223 0.222 0.4 0.355 0.54s0.318 0.272 0.552 0.4c0.161 0.078 0.371 0.144 0.629 0.198s0.476 0.082 0.649 0.091v0.61h-6.181zM66.826 17.189l-2.246-4.701-2.205 4.701h4.451z"></path>
<path fill="#fff" style="fill: var(--color2, #fff)" d="M98.257 22.146h-6.555v-0.61c0.237-0.008 0.54-0.029 0.915-0.058s0.629-0.078 0.77-0.144c0.218-0.107 0.375-0.231 0.476-0.367 0.101-0.14 0.153-0.317 0.153-0.527v-8.826h-0.158l-5.059 10.342h-0.524l-4.818-10.557h-0.137v7.244c0 0.696 0.052 1.232 0.162 1.599s0.274 0.63 0.496 0.787c0.153 0.119 0.472 0.235 0.952 0.342s0.794 0.165 0.939 0.173v0.61h-5.991v-0.61c0.314-0.021 0.641-0.066 0.988-0.128 0.347-0.066 0.613-0.157 0.798-0.276 0.242-0.165 0.412-0.408 0.5-0.737s0.137-0.878 0.137-1.656v-6.205c0-0.354-0.052-0.647-0.158-0.878-0.105-0.227-0.254-0.412-0.451-0.556-0.218-0.157-0.48-0.272-0.794-0.346s-0.625-0.115-0.931-0.124v-0.61h5.060l4.245 9.094 3.628-7.606c0.133-0.276 0.246-0.569 0.339-0.878 0.093-0.305 0.145-0.507 0.153-0.61h4.843v0.61c-0.194 0-0.444 0.025-0.746 0.070s-0.524 0.091-0.665 0.132c-0.238 0.066-0.4 0.177-0.48 0.338s-0.125 0.338-0.125 0.527v8.739c0 0.198 0.040 0.367 0.125 0.503s0.246 0.256 0.48 0.363c0.125 0.058 0.347 0.107 0.67 0.157 0.318 0.045 0.576 0.074 0.761 0.078v0.61l0.004-0.008z"></path>
<path fill="#fff" style="fill: var(--color2, #fff)" d="M121.767 22.146h-3.996c-0.887-1.133-1.684-2.114-2.398-2.938-0.714-0.828-1.488-1.677-2.326-2.555h-1.516v3.844c0 0.198 0.036 0.375 0.117 0.523 0.076 0.148 0.241 0.264 0.492 0.342 0.125 0.041 0.347 0.078 0.657 0.111 0.314 0.033 0.577 0.049 0.794 0.058v0.61h-6.274v-0.61c0.17-0.008 0.411-0.025 0.726-0.054 0.318-0.029 0.54-0.066 0.665-0.119 0.21-0.070 0.359-0.177 0.456-0.321 0.093-0.144 0.141-0.326 0.141-0.544v-8.772c0-0.198-0.037-0.375-0.105-0.527s-0.234-0.272-0.492-0.358c-0.173-0.049-0.399-0.095-0.681-0.14-0.278-0.041-0.516-0.066-0.71-0.074v-0.61h6.846c0.629 0 1.218 0.054 1.766 0.157 0.552 0.103 1.048 0.272 1.496 0.507 0.432 0.227 0.778 0.527 1.036 0.89 0.258 0.367 0.386 0.812 0.386 1.331 0 0.47-0.089 0.886-0.262 1.244s-0.432 0.668-0.774 0.923c-0.315 0.247-0.69 0.462-1.129 0.643s-0.924 0.33-1.451 0.462c0.734 0.791 1.338 1.455 1.822 1.998 0.483 0.54 1.076 1.199 1.782 1.978 0.306 0.342 0.584 0.593 0.83 0.754s0.492 0.293 0.738 0.4c0.181 0.070 0.407 0.128 0.681 0.165 0.271 0.041 0.496 0.062 0.682 0.070v0.614zM116.267 13.105c0-0.742-0.258-1.327-0.775-1.751-0.516-0.429-1.246-0.643-2.185-0.643h-1.778v5.204h1.371c0.963 0 1.762-0.251 2.402-0.758s0.964-1.191 0.964-2.052z"></path>
<path fill="#fff" style="fill: var(--color2, #fff)" d="M135.889 22.146h-6.68v-0.61c0.189-0.008 0.459-0.025 0.814-0.049s0.605-0.058 0.754-0.103c0.23-0.078 0.399-0.181 0.504-0.309s0.158-0.305 0.158-0.536v-8.781c0-0.198-0.040-0.367-0.117-0.503s-0.258-0.247-0.544-0.33c-0.21-0.070-0.472-0.136-0.79-0.198s-0.577-0.095-0.778-0.103v-0.61h6.68v0.61c-0.217 0-0.475 0.021-0.774 0.058s-0.56 0.087-0.786 0.144c-0.266 0.066-0.444 0.173-0.532 0.33s-0.137 0.33-0.137 0.515v8.781c0 0.185 0.048 0.35 0.153 0.499s0.274 0.264 0.516 0.346c0.145 0.041 0.383 0.091 0.718 0.144 0.33 0.054 0.612 0.082 0.842 0.091v0.614z"></path>
<path fill="#fff" style="fill: var(--color2, #fff)" d="M156.866 13.311h-0.721c-0.065-0.206-0.177-0.449-0.339-0.733s-0.347-0.548-0.548-0.795c-0.21-0.264-0.44-0.494-0.686-0.688s-0.487-0.309-0.717-0.338c-0.218-0.029-0.488-0.049-0.815-0.058-0.327-0.012-0.629-0.017-0.911-0.017h-0.605v9.699c0 0.194 0.048 0.367 0.145 0.523s0.27 0.276 0.512 0.363c0.125 0.037 0.386 0.087 0.79 0.157 0.399 0.066 0.713 0.103 0.935 0.111v0.61h-7.003v-0.61c0.194-0.008 0.492-0.029 0.894-0.066 0.4-0.037 0.678-0.078 0.831-0.128 0.23-0.078 0.399-0.185 0.508-0.326s0.161-0.326 0.161-0.56v-9.778h-0.605c-0.217 0-0.483 0.004-0.806 0.017-0.323 0.008-0.629 0.029-0.92 0.058-0.23 0.021-0.468 0.132-0.717 0.338-0.246 0.202-0.476 0.433-0.686 0.688s-0.395 0.527-0.556 0.812c-0.161 0.284-0.27 0.523-0.335 0.717h-0.734v-3.292h12.921v3.292l0.004 0.004z"></path>
<path fill="#fff" style="fill: var(--color2, #fff)" d="M178.956 22.146h-6.176v-0.61c0.544-0.029 0.995-0.086 1.355-0.173s0.536-0.19 0.536-0.309c0-0.058-0.008-0.119-0.020-0.194-0.016-0.070-0.037-0.136-0.065-0.194l-1.234-2.724h-5.196c-0.194 0.4-0.355 0.746-0.476 1.042s-0.234 0.573-0.331 0.828c-0.089 0.243-0.153 0.441-0.19 0.593s-0.053 0.28-0.053 0.379c0 0.227 0.217 0.404 0.657 0.527s0.935 0.198 1.483 0.218v0.61h-5.584v-0.61c0.181-0.008 0.407-0.041 0.681-0.095s0.496-0.128 0.67-0.214c0.278-0.157 0.496-0.317 0.649-0.486s0.303-0.4 0.451-0.7c0.746-1.516 1.569-3.226 2.468-5.122 0.898-1.9 1.701-3.589 2.402-5.068h0.834l4.947 10.462c0.105 0.223 0.222 0.4 0.355 0.54s0.318 0.272 0.552 0.4c0.161 0.078 0.371 0.144 0.629 0.198s0.476 0.082 0.649 0.091v0.61h0.004zM172.977 17.189l-2.246-4.701-2.205 4.701h4.45z"></path>
</symbol>
<symbol id="check-circle" viewBox="0 0 32 32">
<path fill="none" stroke="#802c25" style="stroke: var(--color1, #802c25)" stroke-linejoin="round" stroke-linecap="round" stroke-miterlimit="4" stroke-width="2" d="M28 14.903v1.104c-0.001 2.588-0.839 5.106-2.389 7.178s-3.727 3.589-6.209 4.323c-2.481 0.734-5.134 0.646-7.561-0.251s-4.5-2.554-5.908-4.725-2.077-4.739-1.907-7.321c0.17-2.582 1.171-5.040 2.852-7.007s3.953-3.338 6.478-3.908c2.524-0.57 5.165-0.309 7.529 0.744"></path>
<path fill="none" stroke="#802c25" style="stroke: var(--color1, #802c25)" stroke-linejoin="round" stroke-linecap="round" stroke-miterlimit="4" stroke-width="2" d="M28 6.667l-11.282 12-3.385-3.596"></path>
</symbol>
<symbol id="chevron-right" viewBox="0 0 32 32">
<path fill="none" stroke="#802c25" style="stroke: var(--color1, #802c25)" stroke-linejoin="round" stroke-linecap="round" stroke-miterlimit="4" stroke-width="1.5" d="M10 4l12 12-12 12"></path>
</symbol>
<symbol id="chevron-left" viewBox="0 0 30 32">
<path fill="none" stroke="#802c25" style="stroke: var(--color1, #802c25)" stroke-linejoin="round" stroke-linecap="round" stroke-miterlimit="4" stroke-width="0.9231" d="M21.359 4l-11.308 12 11.308 12"></path>
</symbol>
<symbol id="chevron-down" viewBox="0 0 32 32">
<path fill="none" stroke="#802c25" style="stroke: var(--color1, #802c25)" stroke-linejoin="round" stroke-linecap="round" stroke-miterlimit="4" stroke-width="2" d="M4 10l12 12 12-12"></path>
</symbol>
<symbol id="search" viewBox="0 0 32 32">
<path fill="none" stroke="#802c25" style="stroke: var(--color1, #802c25)" stroke-linejoin="round" stroke-linecap="round" stroke-miterlimit="4" stroke-width="2.4" d="M13.333 22.667c5.155 0 9.333-4.179 9.333-9.333s-4.179-9.333-9.333-9.333c-5.155 0-9.333 4.179-9.333 9.333s4.179 9.333 9.333 9.333z"></path>
<path fill="none" stroke="#802c25" style="stroke: var(--color1, #802c25)" stroke-linejoin="round" stroke-linecap="round" stroke-miterlimit="4" stroke-width="2.4" d="M28 28l-8-8"></path>
</symbol>
<symbol id="arrow-up-right" viewBox="0 0 32 32">
<path fill="none" stroke="#fff" style="stroke: var(--color2, #fff)" stroke-linejoin="round" stroke-linecap="round" stroke-miterlimit="4" stroke-width="2.1818" d="M9.333 22.667l13.333-13.333"></path>
<path fill="none" stroke="#fff" style="stroke: var(--color2, #fff)" stroke-linejoin="round" stroke-linecap="round" stroke-miterlimit="4" stroke-width="2.1818" d="M9.333 9.333h13.333v13.333"></path>
</symbol>
<symbol id="button_menu-burger" viewBox="0 0 32 32">
<path fill="#802c25" style="fill: var(--color1, #802c25)" d="M10.446 8.86c0 0.876-0.71 1.587-1.587 1.587s-1.587-0.71-1.587-1.587c0-0.876 0.71-1.587 1.587-1.587s1.587 0.71 1.587 1.587z"></path>
<path fill="#802c25" style="fill: var(--color1, #802c25)" d="M10.446 16c0 0.876-0.71 1.587-1.587 1.587s-1.587-0.71-1.587-1.587c0-0.876 0.71-1.587 1.587-1.587s1.587 0.71 1.587 1.587z"></path>
<path fill="#802c25" style="fill: var(--color1, #802c25)" d="M10.446 23.14c0 0.876-0.71 1.587-1.587 1.587s-1.587-0.71-1.587-1.587c0-0.876 0.71-1.587 1.587-1.587s1.587 0.71 1.587 1.587z"></path>
<path fill="#802c25" style="fill: var(--color1, #802c25)" d="M17.587 8.86c0 0.876-0.71 1.587-1.587 1.587s-1.587-0.71-1.587-1.587c0-0.876 0.71-1.587 1.587-1.587s1.587 0.71 1.587 1.587z"></path>
<path fill="#802c25" style="fill: var(--color1, #802c25)" d="M17.587 16c0 0.876-0.71 1.587-1.587 1.587s-1.587-0.71-1.587-1.587c0-0.876 0.71-1.587 1.587-1.587s1.587 0.71 1.587 1.587z"></path>
<path fill="#802c25" style="fill: var(--color1, #802c25)" d="M17.587 23.14c0 0.876-0.71 1.587-1.587 1.587s-1.587-0.71-1.587-1.587c0-0.876 0.71-1.587 1.587-1.587s1.587 0.71 1.587 1.587z"></path>
<path fill="#802c25" style="fill: var(--color1, #802c25)" d="M24.727 8.86c0 0.876-0.71 1.587-1.587 1.587s-1.587-0.71-1.587-1.587c0-0.876 0.71-1.587 1.587-1.587s1.587 0.71 1.587 1.587z"></path>
<path fill="#802c25" style="fill: var(--color1, #802c25)" d="M24.727 16c0 0.876-0.71 1.587-1.587 1.587s-1.587-0.71-1.587-1.587c0-0.876 0.71-1.587 1.587-1.587s1.587 0.71 1.587 1.587z"></path>
<path fill="#802c25" style="fill: var(--color1, #802c25)" d="M24.727 23.14c0 0.876-0.71 1.587-1.587 1.587s-1.587-0.71-1.587-1.587c0-0.876 0.71-1.587 1.587-1.587s1.587 0.71 1.587 1.587z"></path>
</symbol>
<symbol id="plus" viewBox="0 0 32 32">
<path fill="none" stroke="#802c25" style="stroke: var(--color1, #802c25)" stroke-linejoin="round" stroke-linecap="round" stroke-miterlimit="4" stroke-width="1.5" d="M16 4v24"></path>
<path fill="none" stroke="#802c25" style="stroke: var(--color1, #802c25)" stroke-linejoin="round" stroke-linecap="round" stroke-miterlimit="4" stroke-width="1.5" d="M4 16h24"></path>
</symbol>
<symbol id="minus" viewBox="0 0 32 32">
<path fill="none" stroke="#802c25" style="stroke: var(--color1, #802c25)" stroke-linejoin="round" stroke-linecap="round" stroke-miterlimit="4" stroke-width="1.5" d="M4 16h24"></path>
</symbol>
</defs>
</svg>
